<svg xmlns="http://www.w3.org/2000/svg" viewBox="0 0 116.244 26.585" height="100.477" width="439.347"><defs><clipPath id="a" clipPathUnits="userSpaceOnUse"><path d="M0 595.28h841.89V0H0z"/></clipPath></defs><path d="M25.89 16.964h3.062v9.352h-3.061zm.453-1.009h-2.307l2.017-2.681h2.737l2.019 2.681h-2.306l-1.08-1.443z" fill="#e42313"/><path d="M30.444 13.451h3.063v12.865h-3.063z" fill="#e42313"/><g clip-path="url(#a)" transform="matrix(.35278 0 0 -.35278 -90.378 118.293)"><path d="M372.925 276.698c-.152 2.98-2.251 5.427-5.158 5.427-3.061 0-5.104-2.195-5.62-5.427zm-10.777-4.841c.153-3.625 2.249-6.025 5.93-6.025 2.084 0 4.13.97 4.948 2.917h8.126c-1.582-6.133-7.26-8.787-13.183-8.787-8.627 0-14.501 5.209-14.501 14.09 0 8.122 6.486 13.946 14.299 13.946 9.5 0 14.249-7.154 13.845-16.141h-19.464M393.015 263.264c4.592 0 6.365 3.944 6.365 7.844 0 4.116-1.857 7.892-6.56 7.892-4.67 0-6.244-3.98-6.244-8.05 0-3.902 2.017-7.686 6.439-7.686m9.67-2.542h-3.423v2.814h-.082c-1.123-2.292-3.787-3.294-6.641-3.294-6.405 0-9.583 5.075-9.583 10.95 0 5.878 3.14 10.832 9.506 10.832 2.128 0 5.189-.8 6.718-3.259h.082v10.706h3.424v-28.749M420.394 273.125c-.16 3.265-2.608 5.876-5.997 5.876-3.585 0-5.717-2.693-5.957-5.876zm3.308-5.8c-.93-4.586-4.226-7.083-8.902-7.083-6.641 0-9.785 4.59-9.984 10.949 0 6.246 4.108 10.833 9.787 10.833 7.365 0 9.622-6.886 9.418-11.923H408.44c-.12-3.628 1.939-6.836 6.479-6.836 2.819 0 4.792 1.374 5.398 4.06h3.385M426.244 297.19H453.1v-7.609h-17.366v-7.456h15.017v-7.353h-15.017v-14.05h-9.489zM454.836 287.232h8.43v-4.649h.092c1.284 3.37 4.239 5.167 7.973 5.167.662 0 1.374-.066 2.042-.217v-7.911c-1.125.308-2.14.513-3.32.513-4.29 0-6.544-2.966-6.544-6.289v-13.124h-8.673z" fill="#e42313"/><path d="M484.608 265.322c4.13 0 5.511 2.347 5.308 7.81-1.223-.757-3.47-.92-5.362-1.427-1.937-.452-3.573-1.273-3.573-3.372 0-2.141 1.68-3.011 3.627-3.011m-11.235 13.74c.152 3.464 1.79 5.718 4.13 7.1 2.351 1.322 5.412 1.836 8.433 1.836 6.276 0 12.36-1.381 12.36-8.888v-11.593c0-2.246 0-4.695 1.023-6.795h-8.739c-.304.82-.408 1.634-.51 2.5-2.246-2.345-5.565-3.26-8.736-3.26-5.053 0-9.033 2.547-9.033 8.017 0 8.627 9.395 7.96 15.418 9.19 1.484.306 2.3.816 2.3 2.453 0 1.987-2.395 2.755-4.186 2.755-2.403 0-3.93-1.076-4.343-3.314h-8.117M501.457 287.232h8.431v-3.628h.1c1.585 2.707 5.156 4.394 8.323 4.394 8.837 0 9.552-6.435 9.552-10.27v-17.006h-8.677v12.818c0 3.629.407 7.303-4.346 7.303-3.267 0-4.697-2.753-4.697-5.665v-14.456h-8.686zM548.345 277.521c-.053 2.247-2.046 3.833-4.238 3.833-4.853 0-5.62-4.134-5.62-7.814 0-3.422 1.48-6.94 5.159-6.94 3.01 0 4.554 1.733 4.95 4.536h8.43c-.766-7.093-6.28-11.175-13.33-11.175-7.963 0-13.895 5.464-13.895 13.58 0 8.427 5.365 14.457 13.895 14.457 6.59 0 12.463-3.476 13.08-10.477zM576.995 276.698c-.153 2.98-2.249 5.427-5.166 5.427-3.059 0-5.096-2.195-5.608-5.427zm-10.774-4.841c.153-3.625 2.244-6.025 5.923-6.025 2.09 0 4.137.97 4.95 2.917h8.125c-1.586-6.133-7.258-8.787-13.18-8.787-8.63 0-14.503 5.209-14.503 14.09 0 8.122 6.488 13.946 14.293 13.946 9.507 0 14.255-7.154 13.847-16.141h-19.455" fill="#e42313"/><path d="M342.353 320.235c3.88 0 7.193 1.003 7.193 5.536 0 3.052-1.656 5.318-5.536 5.318h-10.288v-10.854zm-12.773 14.343h14.648c5.841 0 9.46-3.183 9.46-8.153 0-3.749-1.656-6.844-5.405-7.89v-.087c3.618-.698 4.36-3.358 4.665-6.409.26-3.051.087-6.451 1.83-8.588h-4.62c-1.178 1.264-.524 4.621-1.134 7.673-.436 3.051-1.177 5.624-5.188 5.624h-10.113v-13.297h-4.142zM368.862 335.319h4.751l-5.71-6.234h-2.79zm5.624-18.44c-.175 3.53-2.834 6.364-6.496 6.364-3.88 0-6.19-2.921-6.452-6.364zm3.574-6.28c-1.002-4.968-4.577-7.671-9.634-7.671-7.193 0-10.593 4.97-10.812 11.858 0 6.757 4.447 11.726 10.594 11.726 7.978 0 10.42-7.454 10.201-12.903h-16.87c-.132-3.924 2.092-7.411 7.018-7.411 3.051 0 5.187 1.48 5.841 4.402zM398.029 315.178c0 3.967-1.744 8.064-6.41 8.064-4.75 0-6.67-3.879-6.67-8.195 0-4.055 1.484-8.589 6.366-8.589 4.883 0 6.714 4.491 6.714 8.72m3.662-9.81c0-7.323-3.357-11.072-10.463-11.072-4.228 0-9.111 1.7-9.33 6.626h3.707c.174-2.703 3.4-3.662 5.84-3.662 4.84 0 6.758 3.488 6.758 8.545v1.482h-.087c-1.221-2.747-4.185-4.098-7.02-4.098-6.712 0-10.07 5.275-10.07 11.422 0 5.318 2.617 11.901 10.42 11.901 2.834 0 5.362-1.264 6.714-3.749h.043v3.226h3.488zM407.491 325.989h3.706v-22.538h-3.706zm3.705 4.055h-3.706v4.534h3.706zM426.673 306.198c3.88 0 7.019 3.05 7.019 8.5 0 5.493-3.14 8.545-7.02 8.545-3.88 0-7.018-3.052-7.018-8.544 0-5.45 3.139-8.501 7.019-8.501m0 20.314c7.149 0 10.942-5.187 10.942-11.813 0-6.583-3.793-11.771-10.942-11.771-7.15 0-10.942 5.188-10.942 11.77 0 6.627 3.793 11.814 10.942 11.814M441.978 325.989h3.487v-3.574h.088c1.57 2.79 4.098 4.097 7.323 4.097 5.929 0 7.76-3.4 7.76-8.24v-14.821h-3.705v15.258c0 2.747-1.744 4.534-4.578 4.534-4.49 0-6.67-3.008-6.67-7.063v-12.73h-3.705z" fill="#2a327c"/><path d="M300.593 307.809c-.195-.076-.903-.288-.845-.316-.058.028-.103.038-.1.088.078.269-1.165-.887-1.224-.442-.036.076.06-.018-.116.028.454-.063-2.779-1.086-2.779-1.03-.155.336-.12.668.086.974.255.64-.553 1.556-.249 1.287-.219.222-.219.43-.007.654.14-.1.007.03.081.316.09.057-.168.41.066.284.203.06.538 1.203.298 2.018-.532 1.234-.306 10.14-.037 9.8.096.616-.474 1.07-.202 1.525.021.468-.426.484-.366.8-.238.94-1.562.924-1.416 1.123-.699-.155-3.277-4.303-3.302-4.408.158.153-1.745-2.708-1.707-2.718-.21.048-.447-.322-.49-.751-.02-.052-1.08-1.361-.967-1.105-.363-.61-.792-1.191-1.127-1.814.26.166-.469-.504-.36-.482.016.072-.82-2.015-.83-1.834.078.28-1.03-1.027-1.146-1.036-.235-.951-3.755 1.373-3.82 2.437.008.039-.073.986-.547 1.1.208-.185-2.504 2.285-2.299 2.093-1.418 1.888-2.533 1.834-4.63 3.668.014.029-.49 1.193-.845 1.605-.792-.194-1.863-1.424-1.637-1.727-.339-.143-.402.284-.535.429-.107-.464.347-3.142.347-3.142-.05-.385.183-2.373.27-2.078l.152-.173c0-.02-.239-.297.055-.49.322-.568.974-.97.742-1.761-.285-.143.034-1.181-.016-.843-.32-1.641 3.533-4.727 3-6.918-.247-.196.735-1.361.533-1.307-.334-.392-1.329-.642-2.024-.827-.203-.118-.413-.013-.632.054-.21.04-1.958.754-2.449.422-.019-.05-1.449.332-1.459.269.257.29-1.635-.401-1.35.214.122.477-1.649-.505-1.212-.246-.029-.018-.772-.435-.753-.312.058.166-.675.018-.508-.022-.11.03-.862.246-.752.173-.416.275-.504-.098-.996.139-.03-.056-.589-.133-.693-.105-.035.01-1.108-.038-1.108-.006.085.036-.942-.3-1.01-.032.037.048-.81-.595-1.049-.198.106.329-.956-.27-1.124-.294-.129.025-.666.26-.56.092-.09-.048-.755-.862-.755-.862.125-.038 3.65-2.682 3.096-2.268 0 0 .38-.317 1.306-.868-.147-.394 1.36-.018 1.115-.874 1.402.827 4.276-3.038 5.284-2.425.128 0 .558-.675.698-.622-.227.197.73-.316.43-.294.132-.157.083-.1.541-.574 1.148.05 1.636-.897 2.016-1.217 1.262-2.427-3.974-4.772-4.425-6-.017-.061-.017-.112-.087-.092.06-.057-.733-.345-.823-.727l-.786-1.02c-.698.2-2.47-2.617-3.189-2.98l-1.708-.79s-.24-.233-.4-.471c-.157-.245-.39-.53-.563-.59-.147-.057-1.208-1.104-1.208-1.104l-.263-.496.427-.19s-.275-.321-.316-.461c-.059-.12-.212-.47.12-.545.344-.08.536-.08.617-.241.074-.164 1.447-.27 1.558-.247.103.036.786.338.786.338.66.209 2.82.178 3.07-.038-.045.01 3.138.783 3.223 1.039.104-.015 1.96.652 1.96.652.508.237 1.67.425 2.04.848-.353-.07 1.497.569 2.02.313.16-.088 4.62.838 4.773 1.41.36-.036.401-.371.422-.391-.104-.591-.013-2.228-.234-2.513.008.235-.625-.425-.41-.776.448-.14.426.022.704-.635-.13.297.031-1.324-.006-1.907.015-.312.516-1.345-.31-1.752 0 0-.469-.972-.49-.957.062.476.062-.244-.028-.107.418.198.294-1.08.2-1.236.078.2-.218-.245-.249-.093-.674-1.322.744-1.47-.074-1.617.35-.105.533-1.861.511-1.604a3.84 3.84 0 00-.15-1.722c-.119.366-.318-.673-.256-.955.137-.66-.192-1.905.436-2.193-.096.26.476-.605.476-.605 1.471-.623 1.831 1.303 2.485 1.607.222.047.477.934.69.865.02.069.904 4.298 1.585 4.079-.032 0 1.138 1.737 1.377 2.48-.009-.051-.562.606.612 1.117.57-.192.834 1.329.98 2.197.038.496.39.256.44.784-.01-.146 1.01 1.559 1.176 2.257.167-.01.193.773.31.666-.317.275.276.6.2.84.108.42.072.795.255.76.173.819.687.463.801.388.244-.131.58.075.62-.532-.236-.304.761-.591.675-.78-.029.145 4.758-5.501 6.08-6.583.061-.057 3.768-3.736 3.607-3.697.41-.213.755-.957.783-.905-.155-.238.707-.63.86-.63.56-.982.59-.781.89-.613.097-.438.842-.227 1.115-.37-.083.212.586.398.441.633.202-.071-.138.795.05.693-.239.412-1.643 2.28-1.546 2.622.03.116.201.073.305.05-.018.11-.179.225-.276.304.258.006.314.14.172.413-.252-.138-.598 1.459-.379 1.683.09.408-1.146 5.406-1.73 5.894.038.175-.202 1.276-.248 1.37-.968.605-.167 1.813-.835 2.025-.156-.3-.852.839-.952 1.788-.32.588 0 2-.219 1.79-.19.214 1.004.722 1.3.072 2.52-.954 7.333.629 9.074-.72.411.777 1.336.173.841.316-.076-.094.088-.14.201-.171-.23.049 1.695.17 1.987.018-.742.18 1.09.062 1.016.09-.65.142 1.301-.234 3.38 1.055.745.229.608.617.921 1.33-.127-.608.194.61-.437.996-3.682.923-6.61 3.64-10.278 4.6-1.42.303-3.717 3.783-4.938 3.562 2.22 2.535 4.373 5.058 6.662 7.21.45.433 5.04 5.384 5.04 5.325.17.249.427 1.073.408.719.01.118-.047.275-.17.453-.01-.061-1.725 1.28-2.173.445.605-.376-1.225-.506-1.673-.61-.137-.085-.253-.05-.356-.022-.459.113-1.059-.41-1.365-.48-.67.599-2.352-.512-3.116-.768.063.033-.328-.047-.922.08-.256-.42-.248-.3-.185-.262-.222-.12-.409-.31-1.305-.616.101-.038-.568-.32-.825-.252.022-.118-.1-.434-.495-.357-.297.076-.258.189-.367.076" fill="#e42313"/></g></svg>