<svg xmlns="http://www.w3.org/2000/svg" width="800" height="248"><path d="M60.307.01h-42.17C8.161.01 0 8.167 0 18.141v211.735c0 9.974 8.16 18.132 18.137 18.132h728.829l52.932-204.637L800 .009H60.307z" fill="#0078bb"/><g fill="#fff"><path d="M765.338 52.744L722.78 216.66h-19.974l43.385-165.7h-87.972V32.194h107.119v20.55z"/><path d="M666.583 216.66L701.39 80.065h-43.17V61.28h61.95v20.529l-34.03 134.85h-19.556z"/></g><g fill="#fff"><path d="M119.85 157.011v57.21h10.629c12.047 0 19.341-6.649 19.341-28.605 0-21.947-7.294-28.605-19.341-28.605h-10.63zm6.193 5.227h3.324c9.038 0 14.272 3.805 14.272 23.385 0 19.57-5.234 23.375-14.272 23.375h-3.324v-46.76zM263.66 157.011v57.21h6.182v-26.78l8.08-.316 9.201 27.097h6.498l-9.67-28.37c6.345-2.213 9.19-7.598 9.19-14.023 0-9.433-6.497-14.818-15.688-14.818H263.66zm6.176 5.223h5.396c8.875 0 11.73 3.499 11.73 9.913 0 6.415-2.855 9.902-11.73 9.902h-5.396v-19.815zM193.887 157.011v57.21h6.181v-25.83h7.295c9.201 0 15.219-6.18 15.219-15.695 0-9.505-6.018-15.685-15.219-15.685h-13.476zm6.187 5.227h6.498c6.182 0 9.824 3.325 9.824 10.464 0 7.129-3.642 10.453-9.824 10.453h-6.498v-20.917zM516.131 162.242h-11.73v51.98h-6.182v-51.98h-11.731v-5.231h29.643v5.231zM481.49 214.223h-6.652l-17.76-49.768h-.163v49.768h-6.181V157.01h9.67l14.75 42.159h.154v-42.16h6.181v57.213zM443.44 214.223h-27.103V157.01h26.155v5.231h-19.974v19.489h14.74v5.232h-14.74V209h20.922v5.222zM406.666 214.223h-5.702v-52.46h-.163l-11.894 52.46h-4.04l-11.894-52.46h-.153v52.46h-5.713V157.01h9.834l9.987 43.27h.163l9.752-43.27h9.823v57.212zM359.824 214.223H332.71V157.01h26.165v5.231h-19.983v19.489h14.75v5.232h-14.75V209h20.932v5.222zM326.845 162.242h-11.731v51.98h-6.182v-51.98h-11.73v-5.231h29.643v5.231zM236.547 157.011l-12.598 57.21h6.182l3.406-16.957h14.588l3.406 16.958h6.182l-12.608-57.21h-8.558zm4.203 4.277h.164l6.334 30.747h-12.842l6.344-30.747zM175.576 143.059l-7.762 10.933h3.957l9.997-10.933h-6.192zM159.49 157.01v57.21h27.114v-5.22h-20.932v-22.038h14.74v-5.232h-14.74v-19.49h19.973v-5.23H159.49zM94.174 214.223H67.06V157.01h26.165v5.231H73.252v19.489h14.74v5.232h-14.74V209h20.922v5.222zM60.96 214.223H36.233V157.01h6.182V209H60.96v5.222z"/></g><g fill="#fff"><path d="M307.361 54.671c-6.967 0-10.517 4.825-10.517 11.392 0 4.222 2.072 9.454 3.816 13.34-3.356 3.61-6.367 8.638-6.367 13.665 0 6.7 4.561 11.32 11.59 11.32 4.162 0 6.843-1.132 9.515-3.681 2.55 2.345 5.835 3.62 9.385 3.681v-7.363c-1.673-.275-3.344-1.143-4.619-2.285 1.744-4.15 3.62-8.24 4.559-12.656l-6.844-1.814c-.663 3.08-1.807 6.027-2.95 8.974-2.346-3.008-4.354-6.364-6.027-9.841 3.754-4.161 8.313-8.648 8.313-14.676 0-6.027-3.754-10.056-9.854-10.056zm-.406 4.824c1.948 0 3.018 1.48 3.018 5.232 0 3.345-2.08 6.303-4.018 8.842-1.142-2.815-2.285-6.23-2.285-9.31 0-3.019 1.214-4.764 3.285-4.764zm-2.947 26.532c1.744 3.56 4.09 6.702 6.63 9.72-1.264 1.072-2.202 1.407-3.814 1.407-2.876 0-4.896-2.345-4.896-5.16 0-2.55.672-3.815 2.08-5.967zM642.07 127.191h-45.546V32.185h43.7V46.4h-27.379v24.476h21.065v14.206h-21.065v27.902h29.226v14.206zM584.68 127.191h-14.209l-20.8-59.343h-.265v59.343h-14.74V32.185h15.138l19.871 54.346h.266V32.185h14.74v95.006zM472.809 32.184v95.008h16.32V88.244c2.897 0 6.314-.133 8.426-.398l11.578 39.346h16.588l-13.823-43.028c5.53-2.498 11.456-8.688 11.456-23.944 0-20.274-9.345-28.036-27.645-28.036h-22.9zm16.318 13.425h5.795c8.813 0 12.107 3.285 12.107 14.605s-3.294 14.603-12.107 14.603h-5.795V45.609zM407.278 127.191h-14.22V52.979h-.265l-14.74 74.212h-7.896l-14.74-74.212h-.265v74.212h-14.21V32.185h21.453l11.578 55.529h.265l11.578-55.53h21.462v95.007zM191.133 65.624v59.344h-14.75V29.96h15.138l19.88 54.347h.256V29.96h14.75v95.007h-14.22l-20.8-59.344h-.254zM32.143 52.336c0-15.134 9.211-23.69 25.267-23.69 13.302 0 21.198 9.606 22.646 23.027L64.52 53.387c-.653-8.159-4.998-10.525-8.68-10.525-5.275 0-8.161 3.416-8.161 9.342 0 16.184 33.163 23.945 33.163 49.736 0 15.665-10.528 24.343-25.798 24.343-15.138 0-23.82-12.105-24.482-26.311l15.536-2.244c.652 9.607 4.467 14.35 9.741 14.35 5.652 0 9.477-3.03 9.477-8.69 0-18.815-33.173-23.812-33.173-51.052M89.257 29.961h43.7v14.217H105.58v24.475h21.064V82.86H105.58v27.903h29.225v14.206H89.257V29.96zM145.984 29.961h16.321v95.007h-16.321V29.96zM238.25 29.961h43.69v14.217h-27.368v24.475h21.054V82.86h-21.054v27.903h29.215v14.206h-45.536V29.96zM429.516 32.184l-17.514 95.008h15.8l2.897-21.05h17.893l2.906 21.05h15.791l-17.514-95.008h-20.26zm9.998 18.952h.263l6.448 40.794h-13.159l6.448-40.794z"/></g></svg>